HIERARCHY
ROOT Hips
{
	OFFSET 0.000000 1.471914 24.280096
	CHANNELS 6 Xposition Yposition Zposition Xrotation Yrotation Zrotation
	JOINT Spine
	{
		OFFSET 0.000000 0.900110 1.860670
		CHANNELS 6 Xposition Yposition Zposition Xrotation Yrotation Zrotation
		JOINT Spine1
		{
			OFFSET 0.000000 0.400320 2.270309
			CHANNELS 6 Xposition Yposition Zposition Xrotation Yrotation Zrotation
			JOINT Spine2
			{
				OFFSET 0.000000 0.200920 2.296560
				CHANNELS 6 Xposition Yposition Zposition Xrotation Yrotation Zrotation
				JOINT Spine3
				{
					OFFSET 0.000000 0.000000 2.305330
					CHANNELS 6 Xposition Yposition Zposition Xrotation Yrotation Zrotation
					JOINT Neck
					{
						OFFSET 0.000000 -0.864490 6.051487
						CHANNELS 6 Xposition Yposition Zposition Xrotation Yrotation Zrotation
						JOINT Head
						{
							OFFSET 0.000000 -0.550429 3.121674
							CHANNELS 6 Xposition Yposition Zposition Xrotation Yrotation Zrotation
							End Site
							{
								OFFSET 0.000000 0.000000 3.731750
							}
						}
					}
					JOINT RightShoulder
					{
						OFFSET -0.788280 -1.313800 4.256718
						CHANNELS 6 Xposition Yposition Zposition Xrotation Yrotation Zrotation
						JOINT RightArm
						{
							OFFSET -3.915130 0.000000 0.000000
							CHANNELS 6 Xposition Yposition Zposition Xrotation Yrotation Zrotation
							JOINT RightForeArm
							{
								OFFSET -6.914910 0.000000 0.000000
								CHANNELS 6 Xposition Yposition Zposition Xrotation Yrotation Zrotation
								JOINT RightHand
								{
									OFFSET -6.096219 0.000000 0.000000
									CHANNELS 6 Xposition Yposition Zposition Xrotation Yrotation Zrotation
									JOINT RightHandEnd
									{
										OFFSET -1.749950 0.000000 0.000000
										CHANNELS 6 Xposition Yposition Zposition Xrotation Yrotation Zrotation
										End Site
										{
											OFFSET -1.749950 0.000000 0.000000
										}
									}
									JOINT RightHandThumb1
									{
										OFFSET -0.699980 -1.166630 -0.466648
										CHANNELS 6 Xposition Yposition Zposition Xrotation Yrotation Zrotation
										End Site
										{
											OFFSET -1.690319 -0.452920 0.000000
										}
									}
								}
							}
						}
					}
					JOINT LeftShoulder
					{
						OFFSET 0.788280 -1.313800 4.256718
						CHANNELS 6 Xposition Yposition Zposition Xrotation Yrotation Zrotation
						JOINT LeftArm
						{
							OFFSET 3.915130 0.000000 0.000000
							CHANNELS 6 Xposition Yposition Zposition Xrotation Yrotation Zrotation
							JOINT LeftForeArm
							{
								OFFSET 6.914910 0.000000 0.000000
								CHANNELS 6 Xposition Yposition Zposition Xrotation Yrotation Zrotation
								JOINT LeftHand
								{
									OFFSET 6.096219 0.000000 0.000000
									CHANNELS 6 Xposition Yposition Zposition Xrotation Yrotation Zrotation
									JOINT LeftHandEnd
									{
										OFFSET 1.749950 0.000000 0.000000
										CHANNELS 6 Xposition Yposition Zposition Xrotation Yrotation Zrotation
										End Site
										{
											OFFSET 1.749950 0.000000 0.000000
										}
									}
									JOINT LeftHandThumb1
									{
										OFFSET 0.699980 -1.166630 -0.466648
										CHANNELS 6 Xposition Yposition Zposition Xrotation Yrotation Zrotation
										End Site
										{
											OFFSET 1.690319 -0.452920 0.000000
										}
									}
								}
							}
						}
					}
				}
			}
		}
	}
	JOINT RightUpLeg
	{
		OFFSET -2.338570 -0.252550 -0.551512
		CHANNELS 6 Xposition Yposition Zposition Xrotation Yrotation Zrotation
		JOINT RightLeg
		{
			OFFSET 0.000000 0.000000 -10.744959
			CHANNELS 6 Xposition Yposition Zposition Xrotation Yrotation Zrotation
			JOINT RightFoot
			{
				OFFSET 0.000000 -0.000001 -10.930849
				CHANNELS 6 Xposition Yposition Zposition Xrotation Yrotation Zrotation
				JOINT RightToeBase
				{
					OFFSET 0.000000 -4.087269 -1.487650
					CHANNELS 6 Xposition Yposition Zposition Xrotation Yrotation Zrotation
					End Site
					{
						OFFSET 0.000000 -1.891870 0.000000
					}
				}
			}
		}
	}
	JOINT LeftUpLeg
	{
		OFFSET 2.338570 -0.252550 -0.551512
		CHANNELS 6 Xposition Yposition Zposition Xrotation Yrotation Zrotation
		JOINT LeftLeg
		{
			OFFSET 0.000000 0.000000 -10.744959
			CHANNELS 6 Xposition Yposition Zposition Xrotation Yrotation Zrotation
			JOINT LeftFoot
			{
				OFFSET 0.000000 -0.000001 -10.930849
				CHANNELS 6 Xposition Yposition Zposition Xrotation Yrotation Zrotation
				JOINT LeftToeBase
				{
					OFFSET 0.000000 -4.087269 -1.487650
					CHANNELS 6 Xposition Yposition Zposition Xrotation Yrotation Zrotation
					End Site
					{
						OFFSET 0.000000 -1.891870 0.000000
					}
				}
			}
		}
	}
}
MOTION
Frames: 6
Frame Time: 0.041667
0.000031 26.693167 39.744923 -8.540153 1.336573 -10.271842 -0.000015 0.900095 1.860662 23.590135 -1.607123 -1.278778 0.000014 0.400272 2.270323 -0.000002 -0.000002 0.000009 0.000018 0.200898 2.296551 0.000002 -0.000002 0.000000 0.000028 0.000008 2.305333 -0.000033 0.000002 -0.101152 -0.000016 -0.864458 6.051432 9.507394 -3.390435 -179.318885 0.000007 -0.550432 3.121704 -0.000010 0.000000 -0.000004 -0.788274 -1.313715 4.256812 -121.328352 45.034938 -59.146925 -3.915117 -0.000020 -0.000027 -0.000002 -0.000001 -0.000002 -6.914932 -0.000008 -0.000005 -0.000001 -0.000004 -43.337243 -6.096180 0.000005 0.000027 -0.000101 -0.000069 -0.000054 -1.749896 -0.000036 0.000042 -0.000003 -0.000001 0.000002 -0.699972 -1.166615 -0.466655 -0.000012 -0.000006 0.000005 0.788259 -1.313764 4.256762 -120.135227 -53.345106 59.698264 3.915176 -0.000003 -0.000038 0.000006 -0.000000 0.000012 6.914945 -0.000055 0.000004 0.000002 -0.000002 27.677479 6.096237 0.000092 -0.000030 -0.000053 0.000049 0.000003 1.749985 0.000015 0.000032 -0.000005 -0.000006 -0.000002 0.699944 -1.166620 -0.466626 0.000003 0.000000 -0.000019 -2.338570 -0.252529 -0.551492 18.560464 0.153095 -1.009736 0.000012 -0.000033 -10.744964 8.996835 -0.214702 -0.445714 -0.000015 0.000104 -10.930825 -0.000029 -0.000000 -0.000001 0.000010 -4.087250 -1.487640 0.000004 0.000001 -0.000003 2.338569 -0.252532 -0.551488 17.784153 -2.109373 -0.982057 0.000001 -0.000029 -10.744905 10.903879 1.292600 -0.977680 -0.000010 0.000007 -10.930869 -0.000014 0.000001 -0.000001 -0.000014 -4.087228 -1.487648 -0.000006 -0.000000 -0.000002 
0.000034 26.693167 39.744919 -8.462019 1.117196 -10.074172 -0.000015 0.900087 1.860676 23.470656 -1.648471 -1.328352 0.000014 0.400269 2.270329 -0.000002 -0.000001 0.000011 0.000018 0.200894 2.296549 0.000001 -0.000001 0.000001 0.000027 0.000005 2.305337 -0.000034 0.000003 -0.349266 -0.000015 -0.864463 6.051434 9.347966 -3.057798 -179.662676 0.000008 -0.550435 3.121700 -0.000008 -0.000001 -0.000002 -0.788275 -1.313718 4.256814 -121.829661 46.324498 -59.058665 -3.915115 -0.000023 -0.000031 0.000001 -0.000003 0.000002 -6.914935 -0.000006 -0.000004 0.000002 -0.000000 -41.927185 -6.096180 0.000007 0.000022 -0.000103 -0.000066 -0.000052 -1.749889 -0.000036 0.000045 -0.000000 0.000003 -0.000001 -0.699960 -1.166614 -0.466660 -0.000007 -0.000004 0.000008 0.788260 -1.313766 4.256762 -120.249524 -53.062049 59.493652 3.915180 -0.000004 -0.000042 0.000011 -0.000000 0.000010 6.914930 -0.000059 0.000000 0.000002 -0.000002 27.762706 6.096241 0.000092 -0.000030 -0.000053 0.000050 0.000002 1.749987 0.000011 0.000028 -0.000002 -0.000008 -0.000000 0.699944 -1.166623 -0.466630 0.000001 0.000001 -0.000018 -2.338570 -0.252538 -0.551478 18.336797 0.240405 -1.041683 0.000012 -0.000037 -10.744961 8.930314 -0.067688 -0.449903 -0.000015 0.000102 -10.930822 -0.000027 0.000000 -0.000001 0.000009 -4.087244 -1.487640 0.000003 0.000002 -0.000002 2.338569 -0.252540 -0.551469 17.716771 -1.747114 -1.020427 0.000001 -0.000032 -10.744899 10.934861 0.665215 -0.937536 -0.000010 0.000010 -10.930868 -0.000010 0.000001 -0.000000 -0.000014 -4.087229 -1.487649 -0.000003 0.000001 -0.000003 
0.000037 26.693157 39.744911 -8.487004 0.835327 -9.709659 -0.000015 0.900095 1.860668 23.477247 -1.619003 -1.454122 0.000016 0.400269 2.270321 -0.000003 -0.000001 0.000008 0.000018 0.200899 2.296547 0.000001 -0.000001 0.000001 0.000027 0.000016 2.305337 -0.000034 0.000003 -0.329605 -0.000015 -0.864464 6.051434 9.272391 -2.978642 -179.860724 0.000007 -0.550427 3.121704 -0.000009 -0.000000 -0.000003 -0.788274 -1.313721 4.256821 -122.222219 47.546986 -59.005629 -3.915110 -0.000027 -0.000027 -0.000001 -0.000003 0.000001 -6.914938 -0.000006 -0.000003 0.000005 0.000004 -39.791087 -6.096180 0.000003 0.000023 -0.000097 -0.000069 -0.000050 -1.749886 -0.000032 0.000042 -0.000005 -0.000003 0.000000 -0.699964 -1.166615 -0.466659 -0.000012 -0.000009 0.000005 0.788260 -1.313770 4.256767 -120.489687 -53.252864 59.282565 3.915179 -0.000001 -0.000038 0.000009 0.000000 0.000011 6.914933 -0.000057 -0.000003 0.000008 -0.000003 27.531979 6.096243 0.000093 -0.000034 -0.000053 0.000049 0.000003 1.749981 0.000014 0.000028 -0.000005 -0.000007 -0.000001 0.699941 -1.166623 -0.466630 0.000003 0.000001 -0.000018 -2.338570 -0.252531 -0.551477 18.441186 0.383974 -1.146680 0.000011 -0.000032 -10.744967 8.982553 0.178944 -0.476111 -0.000015 0.000102 -10.930823 -0.000026 0.000001 -0.000000 0.000010 -4.087252 -1.487640 0.000001 0.000002 -0.000002 2.338570 -0.252536 -0.551472 17.622513 -1.711286 -1.110348 0.000001 -0.000029 -10.744898 10.847423 0.914419 -0.979737 -0.000010 0.000009 -10.930867 -0.000014 -0.000000 -0.000000 -0.000014 -4.087228 -1.487650 -0.000002 0.000001 -0.000003 
0.000039 26.693161 39.744915 -8.567729 0.706974 -9.497658 -0.000014 0.900091 1.860672 23.686765 -1.554579 -1.545213 0.000014 0.400271 2.270327 -0.000000 -0.000001 0.000010 0.000018 0.200902 2.296545 0.000003 -0.000001 0.000000 0.000027 0.000010 2.305330 -0.000031 0.000003 -0.157447 -0.000015 -0.864466 6.051429 8.698207 -3.084399 -179.935992 0.000008 -0.550427 3.121696 -0.000009 0.000001 -0.000005 -0.788274 -1.313722 4.256818 -122.946315 48.251933 -58.473386 -3.915113 -0.000023 -0.000027 -0.000004 -0.000000 0.000000 -6.914932 -0.000006 -0.000007 0.000002 0.000006 -39.092093 -6.096188 0.000005 0.000026 -0.000100 -0.000072 -0.000055 -1.749890 -0.000038 0.000042 -0.000003 -0.000001 -0.000002 -0.699970 -1.166619 -0.466659 -0.000012 -0.000008 0.000003 0.788259 -1.313771 4.256761 -122.733691 -55.447575 57.252906 3.915175 -0.000005 -0.000034 0.000011 0.000001 0.000009 6.914937 -0.000056 0.000001 0.000006 -0.000004 27.235630 6.096241 0.000091 -0.000034 -0.000047 0.000051 -0.000000 1.749989 0.000010 0.000029 -0.000007 -0.000005 -0.000003 0.699946 -1.166625 -0.466629 -0.000000 0.000004 -0.000019 -2.338569 -0.252530 -0.551480 18.533428 0.419488 -1.214392 0.000011 -0.000035 -10.744967 8.976150 0.241662 -0.498853 -0.000015 0.000099 -10.930825 -0.000026 0.000000 -0.000002 0.000008 -4.087248 -1.487642 0.000001 0.000002 -0.000001 2.338570 -0.252536 -0.551471 17.565203 -1.701368 -1.166252 0.000000 -0.000030 -10.744902 10.660515 1.198919 -0.995668 -0.000009 0.000007 -10.930869 -0.000020 -0.000000 -0.000001 -0.000014 -4.087227 -1.487650 0.000001 0.000001 -0.000003 
0.000041 26.693157 39.744911 -8.564974 0.534910 -9.382274 -0.000015 0.900088 1.860673 23.798401 -1.333839 -1.595694 0.000014 0.400275 2.270323 -0.000000 -0.000001 0.000010 0.000018 0.200895 2.296547 0.000001 -0.000001 0.000000 0.000028 0.000014 2.305330 -0.000035 0.000002 0.036078 -0.000016 -0.864462 6.051432 8.592433 -3.297933 -180.541161 0.000008 -0.550429 3.121696 -0.000006 0.000000 -0.000002 -0.788272 -1.313721 4.256817 -123.929630 49.219532 -57.647118 -3.915118 -0.000021 -0.000030 -0.000004 0.000002 -0.000002 -6.914936 -0.000009 -0.000006 0.000008 0.000006 -38.366597 -6.096190 -0.000001 0.000023 -0.000102 -0.000070 -0.000050 -1.749885 -0.000030 0.000042 -0.000000 0.000001 -0.000004 -0.699966 -1.166610 -0.466654 -0.000008 -0.000005 -0.000001 0.788259 -1.313768 4.256762 -124.536478 -56.841770 55.662217 3.915183 -0.000002 -0.000034 0.000007 -0.000001 0.000011 6.914941 -0.000055 0.000001 0.000005 -0.000004 26.940148 6.096240 0.000092 -0.000034 -0.000048 0.000053 0.000001 1.749982 0.000013 0.000032 -0.000004 -0.000004 -0.000003 0.699942 -1.166622 -0.466627 0.000005 0.000001 -0.000020 -2.338569 -0.252536 -0.551477 18.469663 0.611627 -1.244740 0.000011 -0.000030 -10.744967 9.132824 0.418294 -0.493443 -0.000016 0.000102 -10.930822 -0.000026 0.000001 -0.000002 0.000010 -4.087248 -1.487641 0.000000 0.000001 -0.000004 2.338570 -0.252541 -0.551474 17.578627 -1.585698 -1.199883 0.000001 -0.000032 -10.744905 10.538412 1.157295 -0.982184 -0.000010 0.000008 -10.930869 -0.000015 0.000000 -0.000001 -0.000015 -4.087223 -1.487649 0.000000 0.000002 -0.000004 
0.000043 26.693155 39.744911 -8.572687 0.307525 -9.436369 -0.000014 0.900090 1.860669 23.964021 -1.254382 -1.642575 0.000015 0.400267 2.270323 -0.000000 -0.000001 0.000011 0.000018 0.200899 2.296551 0.000000 -0.000001 0.000001 0.000028 0.000012 2.305337 -0.000032 0.000001 0.246630 -0.000015 -0.864465 6.051427 8.418583 -3.155064 -180.443530 0.000008 -0.550432 3.121696 -0.000009 0.000001 -0.000006 -0.788272 -1.313722 4.256815 -125.453800 50.320138 -56.277388 -3.915116 -0.000019 -0.000031 -0.000004 0.000002 -0.000001 -6.914933 -0.000008 -0.000003 0.000004 0.000006 -38.302618 -6.096182 0.000006 0.000027 -0.000103 -0.000068 -0.000053 -1.749893 -0.000035 0.000041 0.000001 0.000004 -0.000001 -0.699969 -1.166617 -0.466659 -0.000010 -0.000003 0.000002 0.788262 -1.313769 4.256761 -127.128481 -59.124146 53.691967 3.915178 -0.000006 -0.000042 0.000012 -0.000001 0.000012 6.914938 -0.000049 -0.000006 0.000005 -0.000005 26.650500 6.096236 0.000090 -0.000030 -0.000051 0.000050 0.000001 1.749984 0.000009 0.000035 -0.000000 -0.000007 -0.000000 0.699944 -1.166625 -0.466627 0.000008 0.000000 -0.000018 -2.338569 -0.252533 -0.551483 18.454287 1.008190 -1.271718 0.000011 -0.000032 -10.744969 9.135988 -0.037304 -0.444260 -0.000015 0.000099 -10.930822 -0.000026 0.000000 -0.000001 0.000010 -4.087250 -1.487642 -0.000002 0.000002 -0.000003 2.338570 -0.252538 -0.551473 17.483833 -1.398736 -1.220369 0.000001 -0.000033 -10.744907 10.651767 1.477743 -0.973783 -0.000010 0.000006 -10.930868 -0.000020 -0.000001 0.000000 -0.000014 -4.087230 -1.487649 0.000001 0.000001 -0.000002 
